inDegrees=yes
name=ik_S40_A07_T01
DataType=double
version=3
OpenSimVersion=4.3-2021-08-27-4bc7ad9
endheader
time	pelvis_tilt	pelvis_list	pelvis_rotation	pelvis_tx	pelvis_ty	pelvis_tz	hip_flexion_r	hip_adduction_r	hip_rotation_r	knee_angle_r	knee_angle_r_beta	ankle_angle_r	subtalar_angle_r	mtp_angle_r	hip_flexion_l	hip_adduction_l	hip_rotation_l	knee_angle_l	knee_angle_l_beta	ankle_angle_l	subtalar_angle_l	mtp_angle_l	lumbar_extension	lumbar_bending	lumbar_rotation	arm_flex_r	arm_add_r	arm_rot_r	elbow_flex_r	pro_sup_r	wrist_flex_r	wrist_dev_r	arm_flex_l	arm_add_l	arm_rot_l	elbow_flex_l	pro_sup_l	wrist_flex_l	wrist_dev_l
9.859999999999879	-5.760518303252832	-1.628981015126138	37.7548556299942	0	0.9399999999999999	0	27.81123742805128	-9.10531273434407	-8.150113613944665	32.21038570798901	0.5621772839417331	0	0	0	27.81123742805128	-9.10531273434407	-8.150113613944665	32.21038570798901	0.5621772839417331	0	0	0	-3.152965137115624	-2.229437527029025	4.893516057513253	62.93438982608504	5.356836629593341	28.36686520202819	87.49399165606334	134.1206174502692	0	0	19.19686938757641	-1.874260600730236	10.46298419292112	42.03169784915819	126.5797247052787	0	0
9.879999999999878	-5.756521553047891	-1.615655341560279	37.74461032955882	0	0.9399999999999999	0	27.81748167640936	-9.107007455123567	-8.151963005551265	32.21598668818255	0.5622750394874492	0	0	0	27.81748167640936	-9.107007455123567	-8.151963005551265	32.21598668818255	0.5622750394874492	0	0	0	-3.142053385651842	-2.220816634201563	4.898377288422155	62.89420271779163	5.363957184238977	28.38604724112611	87.52636660608177	134.1708824857185	0	0	19.15294828726758	-1.876943210382481	10.49162902995631	42.01517179215709	126.5571845398645	0	0
9.899999999999878	-5.760851722773646	-1.617993390929669	37.7327575464236	0	0.9399999999999999	0	27.82348294775364	-9.108032007632694	-8.153328503207138	32.22178195454511	0.562376185966506	0	0	0	27.82348294775364	-9.108032007632694	-8.153328503207138	32.22178195454511	0.562376185966506	0	0	0	-3.147414197043999	-2.219269800164145	4.901421093399265	62.96273653456019	5.395090425950495	28.3204102359204	87.90204700485265	134.2564179020273	0	0	19.15143890688765	-1.899417936787786	10.51040701773383	42.0154339073888	126.6038046045274	0	0
9.919999999999877	-5.768253701839113	-1.604302373669708	37.70674397542096	0	0.9399999999999999	0	27.82526713493386	-9.108336238723213	-8.153734194261293	32.223505982431	0.562406275929511	0	0	0	27.82526713493386	-9.108336238723213	-8.153734194261293	32.223505982431	0.562406275929511	0	0	0	-3.145120786167235	-2.203469057012383	4.899803245820411	63.03329542316017	5.374922234165191	28.27262820751436	87.88598310451354	134.2453924285049	0	0	19.12359182914165	-1.89000013814569	10.51032323797284	42.01565708805763	126.5871168278234	0	0
9.939999999999877	-5.787671116689441	-1.6082393231723	37.68317635421831	0	0.9399999999999999	0	27.83034400046001	-9.109197941570372	-8.154885296922833	32.22843032250006	0.5624922218772039	0	0	0	27.83034400046001	-9.109197941570372	-8.154885296922833	32.22843032250006	0.5624922218772039	0	0	0	-3.163278318172151	-2.194329393750453	4.905987398340104	63.16519934570772	5.403279828110814	28.24121323075653	88.52484318799947	134.3399882989544	0	0	19.16256759187565	-1.91182892498242	10.57876990993687	42.03276195323626	126.5626659389968	0	0
9.959999999999877	-5.798271912662873	-1.590078094533182	37.64611980969367	0	0.9399999999999999	0	27.83812276940483	-9.110525745270708	-8.156655621322631	32.23593163454628	0.5626231444706301	0	0	0	27.83812276940483	-9.110525745270708	-8.156655621322631	32.23593163454628	0.5626231444706301	0	0	0	-3.160722054828694	-2.174071233521833	4.931074760879183	63.17470474654989	5.426503206064234	28.27707443500138	88.93999657529457	134.809765135426	0	0	19.11910579091992	-1.900455674931167	10.62956816981668	42.02448881399715	126.5608583971863	0	0
9.979999999999876	-5.799396183938029	-1.581895566299386	37.61766176333874	0	0.9399999999999999	0	27.84605130467207	-9.111878678589671	-8.158459918336838	32.24357431430424	0.562756534396082	0	0	0	27.84605130467207	-9.111878678589671	-8.158459918336838	32.24357431430424	0.562756534396082	0	0	0	-3.157035131170764	-2.166554317294201	4.942155297005909	63.20902830763693	5.461357212171531	28.35059325264812	89.2368327233106	135.2154776401282	0	0	19.09985848527189	-1.92560564218888	10.68981536609645	42.0290910304407	126.534561672853	0	0
9.999999999999876	-5.806437660122986	-1.572569201344091	37.62080379599238	0	0.9399999999999999	0	27.84764532669879	-9.112137520389771	-8.15881157419645	32.24517735206493	0.5627845126830398	0	0	0	27.84764532669879	-9.112137520389771	-8.15881157419645	32.24517735206493	0.5627845126830398	0	0	0	-3.157287588692707	-2.153807470346199	4.930719647408877	63.28186296764078	5.486948577462188	28.48515409007716	89.30498126947606	135.2666543273629	0	0	19.08856603885237	-1.944706704622357	10.75078470891741	42.01735508607217	126.5391986692311	0	0
10.01999999999988	-5.80515758927035	-1.561215664575378	37.63007255817418	0	0.9399999999999999	0	27.90850395266287	-9.120006726933067	-8.170886107255937	32.30504750603906	0.5638294439935643	0	0	0	27.90850395266287	-9.120006726933067	-8.170886107255937	32.30504750603906	0.5638294439935643	0	0	0	-3.155741613229121	-2.133148004218413	4.897703015541511	63.30325636988409	5.509890886473939	28.6314849544838	89.3353450062433	135.1343847005848	0	0	19.08908826694931	-1.964668376673801	10.77675075925177	42.05525929953192	126.4554987439052	0	0
10.03999999999987	-5.807785056812033	-1.530704579555644	37.65636956424496	0	0.9399999999999999	0	27.94366797212701	-9.124925551108202	-8.178119636389594	32.33941312206166	0.5644292371426347	0	0	0	27.94366797212701	-9.124925551108202	-8.178119636389594	32.33941312206166	0.5644292371426347	0	0	0	-3.143154681890477	-2.099222036061215	4.865455751906248	63.29025461844114	5.512472796072233	28.81285687780133	89.28559390546577	134.9459784119319	0	0	19.06217481333576	-1.92181182508508	10.75322914187965	42.01514767262007	126.4902007833447	0	0
10.05999999999987	-5.807710237940448	-1.503041706958558	37.68403519499216	0	0.9399999999999999	0	27.94907418351787	-9.125838394999452	-8.179343096163972	32.34463466255717	0.5645203702163076	0	0	0	27.94907418351787	-9.125838394999452	-8.179343096163972	32.34463466255717	0.5645203702163076	0	0	0	-3.127308775305636	-2.07425826718629	4.833528422280655	63.27031418820879	5.563309250470651	29.01278216522784	89.08284848952215	134.7847079429676	0	0	19.05245917042395	-1.886357634795713	10.76007805888297	41.94396982425528	126.5474697686498	0	0
10.07999999999987	-5.799793316618169	-1.5029611068652	37.66267181019956	0	0.9399999999999999	0	27.95520618345557	-9.126866142057407	-8.180724513196166	32.35059240999276	0.5646243525250609	0	0	0	27.95520618345557	-9.126866142057407	-8.180724513196166	32.35059240999276	0.5646243525250609	0	0	0	-3.121142292423454	-2.079527774560081	4.855664790564847	63.31014192092852	5.587856116017426	28.8899221519673	88.63033452389627	134.5264220050337	0	0	19.04411278563375	-1.894552430295256	10.76212308179341	41.940124812124	126.5942769951759	0	0
10.09999999999987	-5.809479151081585	-1.499528559757347	37.65554672191602	0	0.9399999999999999	0	27.95870645374801	-9.127459912869002	-8.181519144921884	32.35395554795713	0.564683050355738	0	0	0	27.95870645374801	-9.127459912869002	-8.181519144921884	32.35395554795713	0.564683050355738	0	0	0	-3.126792092539309	-2.071223117346474	4.869126791247971	63.33152571120054	5.556440652667203	28.806615350577	88.62825801078263	134.4912887925724	0	0	19.1071898648895	-1.907112969429012	10.83867761970072	41.90532942634203	126.5284057458005	0	0
10.11999999999987	-5.793145041241098	-1.48164340276137	37.63284438525921	0	0.9399999999999999	0	27.96522726281573	-9.128548053823915	-8.182984371939279	32.36030988524623	0.5647939544632151	0	0	0	27.96522726281573	-9.128548053823915	-8.182984371939279	32.36030988524623	0.5647939544632151	0	0	0	-3.102745903893939	-2.068980273532322	4.910894491449883	63.31099558155704	5.424115798308634	28.66911868088421	88.10264256133583	133.7015059855186	0	0	19.0575448109522	-1.925279221686292	10.84536683982003	41.87248318180658	126.5039086172068	0	0
10.13999999999987	-5.824649615257254	-1.492659370873414	37.6176217673821	0	0.9399999999999999	0	27.97379959200753	-9.12999856802532	-8.184927932684502	32.36855330467423	0.5649378292738566	0	0	0	27.97379959200753	-9.12999856802532	-8.184927932684502	32.36855330467423	0.5649378292738566	0	0	0	-3.134868540324146	-2.058501068320162	4.933811835786986	63.37250891574704	5.327948684246859	28.57491456360911	87.76168610766177	133.3556225633434	0	0	19.11223491638627	-1.918933494384535	10.83003554440114	41.89360049331405	126.5098861332479	0	0
10.15999999999987	-5.84030166983062	-1.494547345827177	37.61810992273003	0	0.9399999999999999	0	27.97486313883556	-9.131221862310356	-8.185894782487242	32.36891982931238	0.5649442263355819	0	0	0	27.97486313883556	-9.131221862310356	-8.185894782487242	32.36891982931238	0.5649442263355819	0	0	0	-3.148336317659607	-2.050821619622104	4.93912967802165	63.38685201095414	5.322121814973023	28.58336353273865	87.75930590245348	133.3660908287072	0	0	19.11221818398718	-1.906913356489691	10.84387677821084	41.89176212639102	126.5263315551224	0	0
10.17999999999987	-5.855095206311709	-1.497829885780711	37.6054314114702	0	0.9399999999999999	0	27.98274206722483	-9.13255222289302	-8.187679724981672	32.37649584631055	0.5650764527763872	0	0	0	27.98274206722483	-9.13255222289302	-8.187679724981672	32.37649584631055	0.5650764527763872	0	0	0	-3.162306289487139	-2.044832815962518	4.965172414034039	63.35362931218097	5.208750551670262	28.51696906270133	87.44252265524595	133.0682655410765	0	0	19.12203350729686	-1.898810802904742	10.84669034973395	41.91592498573285	126.5289303964426	0	0
10.19999999999987	-5.864890852804372	-1.487205316903849	37.58794485582237	0	0.9399999999999999	0	27.9899361898714	-9.133761969039364	-8.189305546433829	32.38343370372797	0.5651975412313549	0	0	0	27.9899361898714	-9.133761969039364	-8.189305546433829	32.38343370372797	0.5651975412313549	0	0	0	-3.163746514821363	-2.031179691935606	4.994936859853461	63.26646251759134	5.088079254470747	28.45311750556154	86.95050591006824	132.5880179374753	0	0	19.12098457994131	-1.883126666832246	10.85084094561718	41.89378772819838	126.5236731090479	0	0
